<svg data-name="Ebene 1" xmlns="http://www.w3.org/2000/svg" viewBox="0 0 1000 113.18">
  <title>
    taktsoft_logo_blau
  </title>
  <path fill="#0080c8" d="M0 3.01L102 3v19H61v88H41V22H0V3.01zM383 3.01L485 3v19h-41v88h-20V22h-41V3.01zM898 3.01L1000 3v19h-41v88h-20V22h-41V3.01zM815 110h-21V3h86v19h-65v23h54v19h-54v46z"/>
  <path d="M139.94 28.61v17h82v-17.4a5.1 5.1 0 0 0-3.27-4.48c-17.05-5.87-57.25-5.68-75-.11a5.24 5.24 0 0 0-3.67 5zm102.27 81.2h-20.29v-46h-82v46h-20.28V19.42c0-7.15 3.6-12.06 12.74-14.07a233.83 233.83 0 0 1 98.71.47c5.73 1.32 11.12 5 11.12 13.67v90.32z" fill="#0080c8" fill-rule="evenodd"/>
  <path d="M750.18 27.89a5.09 5.09 0 0 0-3.28-4.47c-17-5.87-59.49-5.68-77.28-.11a5.23 5.23 0 0 0-3.67 5v57a5.07 5.07 0 0 0 3.27 4.47c17 5.87 59.49 5.68 77.28.11a5.24 5.24 0 0 0 3.68-5v-57zm-104.53-8.78c0-7.16 3.6-12.06 12.74-14.07 32-7 70.48-6.55 101 .46 5.74 1.33 11.12 5.06 11.12 13.68v74.89c0 7.16-3.6 12.06-12.74 14.07-32 7-70.48 6.55-101-.47-5.74-1.32-11.12-5-11.12-13.67V19.11zM511.87 63.87c-7.3 0-11.7-5-11.7-11.7V19.43c0-7.92 5-12.3 10-13.44a220.79 220.79 0 0 1 51.33-6c18.12 0 35.21 2.33 60.07 7.56v19.91c-36-10.59-79.09-9.65-96.8-4a5.51 5.51 0 0 0-4.28 5.78V42.4a3 3 0 0 0 3.29 3.18h87.33c7.3 0 11.7 5 11.7 11.7v36.48c0 7.92-5 12.3-10 13.44a220.79 220.79 0 0 1-51.33 6c-18.42 0-35.77-2.41-61.31-7.83v-20c36.28 11 80.12 10.09 98 4.4a5.51 5.51 0 0 0 4.32-5.77V67.06a3 3 0 0 0-3.29-3.18zM382.13 109.81h-20.29V73.47a4.74 4.74 0 0 0-3.84-4.74c-31.48-7-73.63-4.76-73.63-4.76l-.09 45.84H264.1V3.36h20.2l.09 42.23h6.32A28 28 0 0 0 311 35.8c10.2-11.31 29.24-32.46 29.24-32.46l26.67.13s-24.09 27-34.46 38.31a24.07 24.07 0 0 1-5.59 4.67c14.62.77 30.69 2.15 44.15 4.64 5.79 1.06 11.12 5 11.12 13.67v45.05z" fill="#0080c8"/>
</svg>
